<svg xmlns="http://www.w3.org/2000/svg" xmlns:xlink="http://www.w3.org/1999/xlink" width="63" height="63" viewBox="0 0 63 63"><defs><path id="v94la" d="M914.645 2243.4l18.801-18.86c-3.602-4.31-5.791-9.828-5.791-15.79 0-13.5 11.215-24.75 24.672-24.75 13.458 0 24.673 11.25 24.673 24.75s-11.215 24.75-24.673 24.75c-5.831 0-11.233-2.115-15.494-5.607l-18.599 18.657c-.448.45-.897.45-1.794.45s-1.346 0-1.794-.45c-.898-.9-.898-2.25 0-3.15zm37.682-14.4c11.215 0 20.187-9 20.187-20.25s-8.972-20.25-20.187-20.25c-11.215 0-20.186 9-20.186 20.25s8.971 20.25 20.186 20.25zm-6.729-22.5h4.486v-4.5c0-1.35.897-2.25 2.243-2.25 1.346 0 2.243.9 2.243 2.25v4.5h4.486c1.346 0 2.243.9 2.243 2.25s-.897 2.25-2.243 2.25h-4.486v4.5c0 1.35-.897 2.25-2.243 2.25-1.345 0-2.243-.9-2.243-2.25v-4.5h-4.486c-1.345 0-2.243-.9-2.243-2.25s.898-2.25 2.243-2.25z"/></defs><g><g transform="translate(-914 -2184)"><use fill="#292851" xlink:href="#v94la"/></g></g></svg>