<?xml version="1.0" standalone="no"?>
<!DOCTYPE svg PUBLIC "-//W3C//DTD SVG 20010904//EN"
 "http://www.w3.org/TR/2001/REC-SVG-20010904/DTD/svg10.dtd">
<svg version="1.0" xmlns="http://www.w3.org/2000/svg"
 width="270.000000pt" height="270.000000pt" viewBox="0 0 270.000000 270.000000"
 preserveAspectRatio="xMidYMid meet">
<metadata>
Created by potrace 1.11, written by Peter Selinger 2001-2013
</metadata>
<g transform="translate(0.000000,270.000000) scale(0.100000,-0.100000)"
fill="#000000" stroke="none">
<path d="M1063 2681 c-98 -33 -162 -99 -198 -200 -56 -160 -108 -213 -211
-214 -50 -1 -54 -3 -48 -21 10 -35 43 -56 89 -56 61 0 104 32 143 109 17 35
32 56 32 46 0 -29 39 -89 74 -113 66 -45 136 -53 202 -23 62 28 83 66 104 187
11 59 26 114 35 124 15 16 14 18 -6 23 -30 8 -69 -33 -69 -74 0 -31 -1 -32
-20 -14 -31 28 -100 31 -132 5 -44 -34 -34 -100 14 -100 21 0 43 36 28 45 -19
12 -10 25 18 25 47 -1 67 -25 67 -79 0 -40 -5 -53 -25 -70 -82 -69 -209 -25
-238 83 -24 84 25 188 108 231 44 23 95 28 292 28 l191 1 -2 -168 c-1 -177 -9
-216 -54 -265 -34 -36 -114 -85 -192 -115 -159 -63 -227 -115 -269 -206 -19
-44 -20 -62 -20 -922 l-1 -878 -37 -15 c-26 -10 -38 -21 -38 -35 0 -19 6 -20
173 -20 160 0 173 1 174 18 1 11 -11 26 -28 36 l-29 17 0 510 c0 352 3 509 11
509 5 0 34 11 64 25 76 36 165 129 209 216 20 39 36 65 37 58 1 -19 1 -1278 0
-1305 -1 -14 -11 -26 -30 -34 -21 -8 -27 -17 -24 -31 5 -18 16 -19 174 -19
l169 0 0 24 c0 19 -7 26 -30 31 -16 4 -33 11 -36 17 -11 18 -7 2540 4 2547 18
11 255 3 279 -10 53 -28 49 -129 -7 -159 -29 -15 -65 -12 -83 8 -30 32 -19 70
13 50 14 -9 22 -9 34 1 21 18 20 44 -3 58 -23 14 -39 12 -68 -8 -70 -49 -31
-159 57 -163 17 0 30 -4 30 -7 0 -3 -14 -24 -31 -45 -99 -125 -104 -232 -13
-270 50 -21 55 -17 35 24 -41 79 -31 135 44 252 54 83 75 157 75 267 l0 83
-492 0 c-445 -1 -498 -3 -545 -19z m451 -854 l-2 -303 -27 -55 c-83 -163 -167
-249 -267 -273 l-28 -6 0 311 c0 211 4 324 12 351 17 57 68 108 198 197 63 43
115 79 115 80 0 1 -1 -135 -1 -302z"/>
</g>
</svg>
